# xmcd
#
# Track frame offsets:
#	150
#	15321
#	28813
#	39705
#	53187
#	71190
#	85981
#	95882
#	111469
#	121866
#	138842
#	155307
#	171164
#	182456
#	197169
#	207945
#	221157
#	231893
#	248452
#	259045
#	274081
#	287592
#	301547
#	316581
#	330916
#	340039
#
# Disc length: 4726 seconds
#
# Revision: 0
# Processed by: cddbd v1.5.2PL0 Copyright (c) Steve Scherf et al.
# Submitted via: EasyCDDAExtractor 12.0.1.1
#
DISCID=6a12741a
DTITLE=Various Artist - Country Hits, Vol. 11
DYEAR=2009
DGENRE=Country
TTITLE0=Bellamy Brothers - I Need More Of You
TTITLE1=Martina McBride - You Win Again
TTITLE2=Randy Travis - Would I
TTITLE3=Patty Loveless - He Thinks I Still Care
TTITLE4=Bellamy Brothers - Old Hippie
TTITLE5=Patty Loveless - You Will
TTITLE6=Jann Browne - I Don't Care
TTITLE7=Bellamy Brothers - Sugar Daddy
TTITLE8=Waylon Jennings - Blues Come Around
TTITLE9=Martina McBride - Today I Started Loving You Again
TTITLE10=Randy Travis - A Few Ole Country Boys
TTITLE11=Bellamy Brothers - Crazy From The Heart
TTITLE12=Waylon Jennings - The Chokin' Kind
TTITLE13=Bellamy Brothers - Lovers Live Longer
TTITLE14=Martina McBride - Once A Day
TTITLE15=Bellamy Brothers - Do You Love As Good As You Look
TTITLE16=Waylon Jennings - Mansion On The Hill
TTITLE17=Bellamy Brothers - For All The Wrong Reasons
TTITLE18=Jann Browne - Waitin' In Your Welfare LINE
TTITLE19=Bellamy Brothers - Redneck Girl
TTITLE20=Waylon Jennings - Sweet Dream Woman
TTITLE21=Martina McBride - Heartaches By The Number
TTITLE22=Bellamy Brothers - You'll Never Be Sorry
TTITLE23=Randy Travis - I Won't Need You Anymore
TTITLE24=Martina McBride - Love's Gonna Live Here
TTITLE25=Bellamy Brothers - Big Love
EXTD=
EXTT0=
EXTT1=
EXTT2=
EXTT3=
EXTT4=
EXTT5=
EXTT6=
EXTT7=
EXTT8=
EXTT9=
EXTT10=
EXTT11=
EXTT12=
EXTT13=
EXTT14=
EXTT15=
EXTT16=
EXTT17=
EXTT18=
EXTT19=
EXTT20=
EXTT21=
EXTT22=
EXTT23=
EXTT24=
EXTT25=
PLAYORDER=
